<svg viewBox="0 0 36 36" fill="none" xmlns="http://www.w3.org/2000/svg">
  <circle cx="18" cy="18" r="15" stroke="#22c55e" stroke-width="2.2" fill="none" opacity="0.25"/>
  <circle cx="18" cy="18" r="10" stroke="#22c55e" stroke-width="1.6" fill="none" opacity="0.45"/>
  <path d="M18 26 C18 26 10 22 10 15 C10 10 14 8 18 8 C22 8 26 10 26 15 C26 22 18 26 18 26Z" fill="#22c55e" opacity="0.18"/>
  <path d="M18 26 C18 26 10 22 10 15 C10 10 14 8 18 8 C22 8 26 10 26 15 C26 22 18 26 18 26Z" stroke="#22c55e" stroke-width="1.8" fill="none"/>
  <line x1="18" y1="26" x2="18" y2="10" stroke="#22c55e" stroke-width="1.2" opacity="0.6"/>
  <path d="M18 20 Q14 17 12 14" stroke="#22c55e" stroke-width="1" stroke-linecap="round" opacity="0.5"/>
  <path d="M18 20 Q22 17 24 14" stroke="#22c55e" stroke-width="1" stroke-linecap="round" opacity="0.5"/>
</svg>
